<svg width="130" height="124" viewBox="0 0 130 124" fill="none" xmlns="http://www.w3.org/2000/svg">
<rect x="2.3199" y="17.48" width="81.7697" height="103.227" rx="5" fill="#91E456" fill-opacity="0.5"/>
<path d="M117.725 22.1193L127.004 16.3201L128.454 19.2197L124.974 30.2383L110.766 59.8146L102.647 75.4726L94.2382 89.9708L83.7996 84.4615L88.149 75.4726L96.558 58.9447L108.446 37.1974L117.725 22.1193Z" fill="#91E456" fill-opacity="0.5"/>
<path d="M94.2382 90.261L83.7995 85.3317L77.4203 98.67L74.2307 106.209L72.201 114.328L75.1006 117.518H80.03L83.2196 113.748L89.3088 102.15L94.2382 90.261Z" fill="#91E456"/>
<path d="M77.7102 16.6102H4.63934L10.4386 13.7106L76.2603 0.662231L77.7102 6.4615V16.6102Z" fill="#91E456" fill-opacity="0.5"/>
<path d="M4.13284 122.486C6.36672 123.139 77.9604 123.357 80.9571 122.758C81.8833 122.594 83.2454 121.887 84.0625 121.287C85.2612 120.252 85.5333 119.544 85.8057 116.547C86.2416 110.826 86.2966 110.772 91.4727 99.9836C93.0958 96.6076 94.5048 93.5983 95.3682 91.7063C95.5485 91.798 95.5722 91.8094 95.5752 91.8108L95.5762 91.8098C95.5766 91.809 95.5774 91.8074 95.5782 91.8059C95.5801 91.802 95.584 91.796 95.5879 91.7883C95.5959 91.7727 95.6074 91.7488 95.6231 91.718C95.6544 91.6565 95.701 91.5649 95.7617 91.4456C95.8833 91.2068 96.062 90.8561 96.2901 90.4084C96.7464 89.5128 97.4008 88.2285 98.1934 86.675C99.7787 83.5677 101.917 79.3823 104.127 75.0706C108.561 66.4203 113.252 57.3314 114.39 55.3401C116.748 51.2136 121.707 40.7063 123.725 36.3821C125.781 31.9761 126.961 28.7325 127.558 26.9436C128.128 25.2327 128.744 23.3951 129.056 21.8342C129.173 21.2477 129.514 19.9423 129.556 18.7659C129.596 17.6257 129.386 15.8341 127.675 14.9788C126.806 14.5443 125.898 14.5974 125.173 14.7786C124.446 14.9604 123.757 15.3043 123.182 15.6536C122.03 16.3528 121.065 17.2388 120.725 17.5793C120.144 18.1597 118.115 20.1893 116.955 21.3489C116.294 22.01 115 23.6148 113.784 25.1887C112.549 26.7876 111.29 28.4904 110.679 29.4065C109.474 31.213 101.605 45.2078 100.177 47.7776C99.6249 48.771 95.8178 56.4049 92.1846 63.7161C90.36 67.3878 88.5687 71.0005 87.2334 73.6946C86.9146 74.3378 86.6216 74.9285 86.3604 75.4553L86.4366 73.3391L85.8155 73.3176C85.9655 69.4922 85.9698 62.3883 85.9698 48.2776C85.9698 29.8073 85.7517 19.6183 85.4248 18.801C84.7709 17.3845 81.7192 15.7502 79.7578 15.7502H78.3955V8.99438C78.3955 2.29309 78.3959 2.18354 76.9795 1.09399C76.1624 0.440262 75.0182 -0.0501862 74.3643 0.00415039C73.765 0.00415039 58.1277 3.05527 39.7119 6.8147C21.2965 10.5196 5.33256 13.8429 4.24222 14.1155C3.15252 14.4424 1.84448 15.1511 1.24515 15.8049C0.264684 16.8946 0.210345 18.6425 0.0469055 67.7288C-0.0620604 117.254 -0.0624266 118.509 0.972687 120.198C1.7354 121.342 2.71646 122.104 4.13284 122.486ZM41.8907 15.6956C22.8769 15.6411 7.78544 15.4774 8.38284 15.3684C14.921 13.9518 73.438 2.23832 74.0918 2.18384C74.5821 2.12946 75.2356 2.4559 75.5625 2.83716C75.8894 3.21854 76.2162 6.26975 76.3252 9.64771L76.4893 15.7502L41.8907 15.6956ZM92.0166 87.6702C90.0972 86.8275 87.6155 85.7015 86.0215 84.9524L86.0996 82.7483L87.7071 79.4954L87.708 79.4944C87.7084 79.4936 87.7083 79.492 87.709 79.4905C87.7107 79.4872 87.7137 79.4822 87.7168 79.4758C87.7236 79.4622 87.7348 79.4412 87.7481 79.4143C87.7747 79.3606 87.8138 79.2809 87.8653 79.177C87.9685 78.9685 88.1203 78.6619 88.3135 78.2717C88.7001 77.4911 89.2544 76.3734 89.9219 75.0266C91.257 72.333 93.048 68.7217 94.8721 65.051C98.536 57.678 102.291 50.1493 102.799 49.2346C104.272 46.5834 112.059 32.7445 113.175 31.0706C113.724 30.2468 114.929 28.6141 116.158 27.0237C117.406 25.4087 118.577 23.97 119.076 23.4709C120.236 22.3112 122.266 20.2804 122.846 19.7004C123.085 19.4608 123.861 18.7508 124.738 18.218C125.178 17.9513 125.577 17.7706 125.9 17.6897C126.223 17.609 126.331 17.661 126.334 17.6624C126.364 17.6773 126.588 17.773 126.557 18.6594C126.526 19.5125 126.287 20.3823 126.114 21.2454C125.847 22.5839 125.301 24.2262 124.712 25.9944C124.148 27.6849 123.009 30.821 121.006 35.1135C118.964 39.4881 114.066 49.8581 111.784 53.8508C110.602 55.9192 105.868 65.0992 101.458 73.7014C99.2467 78.0153 97.1074 82.2024 95.5215 85.3108C94.8699 86.588 94.3107 87.6833 93.8789 88.5305C93.3126 88.2694 92.6787 87.977 92.0166 87.6702ZM81.0655 120.307C78.6078 121.179 7.34725 121.124 4.89554 120.307C3.86044 119.925 2.93433 119.108 2.60745 118.345C1.79022 116.218 1.95425 19.4005 2.77151 18.5833C3.26551 18.0931 12.748 17.9299 42.0547 17.9299C80.7388 17.9299 82.2096 17.9845 83.4082 19.7825C83.6261 20.1126 83.8448 33.8411 83.8448 50.3479C83.8658 61.8999 83.8797 68.9988 83.9473 73.2512L83.9385 73.2502L83.6729 80.6584C83.4203 81.1473 83.171 81.6367 82.9453 82.0911C82.6125 82.7614 82.3161 83.3785 82.125 83.8127C82.0379 84.0109 81.9426 84.2383 81.8858 84.4241C81.8705 84.474 81.8468 84.5575 81.8291 84.6565C81.8262 84.673 81.7769 84.9036 81.8262 85.1995L81.4473 85.927C79.2678 90.2315 74.2551 101.891 72.7295 106.141C71.3131 110.063 70.8231 114.204 71.5313 116.383C71.9672 117.8 74.9638 119.271 77.3067 119.271C79.4314 119.271 81.0654 118.453 82.5909 116.656L83.8448 115.185V116.438C83.8448 118.399 82.9179 119.653 81.0655 120.307ZM77.0879 117.092C71.313 117.092 71.8579 112.624 79.7578 94.8625C81.7738 90.3403 83.6266 86.5805 83.7901 86.635C83.955 86.6357 86.1882 87.6162 88.7481 88.76C91.3086 89.9041 93.3247 91.048 93.2705 91.3206C93.2161 91.5385 90.7095 96.8233 87.7129 103.034C81.7741 115.13 80.3025 117.092 77.0879 117.092Z" fill="#286000"/>
<line x1="20.6373" y1="79.772" x2="65.1913" y2="79.772" stroke="#286000" stroke-width="3" stroke-linecap="round"/>
<line x1="20.6373" y1="92.5304" x2="50.6932" y2="92.5304" stroke="#286000" stroke-width="3" stroke-linecap="round"/>
<rect x="18.5574" y="37.1976" width="51.0336" height="29.5763" rx="4" fill="#91E456"/>
</svg>
