<svg width="132" height="118" viewBox="0 0 132 118" fill="none" xmlns="http://www.w3.org/2000/svg">
<rect width="74.1082" height="23.3894" rx="2" transform="matrix(-0.706991 0.707223 -0.707285 -0.706929 130.317 51.4359)" fill="#91E456" fill-opacity="0.5"/>
<path d="M64.3353 44.0461L40.4038 66.9922L42.3708 71.2536H52.2057L59.4179 65.681L76.7929 49.6187L89.5782 38.1457L95.807 28.3117V17.4943L93.5121 11.5939L87.9391 17.4943L64.3353 44.0461Z" fill="#91E456" fill-opacity="0.5"/>
<path d="M53.6802 116.963L62.2037 114.012L62.2964 113.981L62.3697 113.917L67.6148 109.327L67.6754 109.274L67.7164 109.206L71.9781 101.994L72.023 101.917L72.0396 101.829L73.3502 94.6169L73.3638 94.5417L73.355 94.4656L72.6988 89.2205L72.6861 89.1179L72.6334 89.0281L68.3716 81.8171L68.3179 81.7263L68.232 81.6648L61.3472 76.7478L61.2798 76.699L61.2007 76.6755L55.0494 74.8298L56.6304 62.5037L64.4879 34.6755L68.4195 20.9197L72.3482 9.46167L72.355 9.44116L72.3599 9.42065L74.3267 1.55347L74.483 0.932373H70.4254L70.3062 1.00366L63.7496 4.93726L63.7066 4.96362L63.6695 4.9978L55.8013 12.2087L55.7173 12.2859L55.6754 12.3923L52.397 20.5867L52.3804 20.6287L52.3716 20.6716L50.0767 31.8171L50.0748 31.825L46.4722 50.822L42.1265 70.3699L38.8453 65.7205L38.8033 65.6619L38.7466 65.6169L32.5172 60.7L32.4312 60.6316L32.3248 60.6062L22.8179 58.3113L22.7047 58.2839L22.5904 58.3093L12.4283 60.6042L12.3209 60.6287L12.2339 60.6951L6.66168 64.9558L6.61969 64.988L6.58551 65.0281L2.65094 69.6169L2.5943 69.6843L2.56305 69.7673L0.596252 75.0115L0.564026 75.0964V82.8738L0.643127 82.9978L3.5943 87.5867L3.64117 87.6599L3.71051 87.7136L9.28375 91.9744L9.38239 92.0505L9.50543 92.071L19.3404 93.7097L19.4713 93.7312L19.5963 93.6853L28.4478 90.407L28.5357 90.3748L28.606 90.3123L34.5074 85.0671L34.523 85.0535L34.5377 85.0378L39.9039 79.3894V82.6755L37.9449 93.1248L37.9361 93.1697V103.456L37.9595 103.529L39.9263 109.758L39.9693 109.893L40.0777 109.986L44.6675 113.92L44.7398 113.981L44.8297 114.012L53.3531 116.963L53.5172 117.019L53.6802 116.963ZM25.2076 82.1052C20.6459 85.8105 14.5662 85.8831 11.6285 82.2673C8.69124 78.6515 10.0076 72.716 14.5689 69.0105C19.1305 65.305 25.2101 65.2328 28.148 68.8484C31.0858 72.4642 29.7693 78.3996 25.2076 82.1052ZM62.8502 96.5603C62.2597 102.439 58.0229 106.826 53.3873 106.361C48.7518 105.895 45.4719 100.753 46.0621 94.8748C46.6525 88.9963 50.8893 84.6078 55.525 85.073C60.1608 85.5385 63.4405 90.6817 62.8502 96.5603Z" fill="#91E456"/>
<path d="M70.1108 0.603691C62.7369 3.37488 56.6001 8.57085 53.9277 14.3112C52.1955 17.9731 51.7996 19.9525 47.1971 44.3488L43.8318 62.312L41.8522 64.2419L39.8726 66.1224L37.2496 63.6481C28.4405 55.3346 14.2369 56.0768 5.5762 65.3801C-2.98553 74.5349 -1.50083 87.2032 8.74354 92.2012C14.0389 94.8239 21.9573 94.3291 27.6981 91.063C30.915 89.2321 34.8741 85.7186 37.4971 82.4526C38.7838 80.869 39.8726 79.6319 39.9221 79.7309C40.0211 79.7804 39.3777 83.0959 38.5364 87.0052C35.7155 99.723 36.5073 105.81 41.5553 111.352C45.069 115.212 48.6323 116.845 53.6802 116.845C57.194 116.894 57.9859 116.696 60.9552 115.212C65.2608 113.084 69.22 108.927 71.4471 104.325L73.0802 100.861L74.7629 102.593C77.9302 105.859 76.396 107.047 105.15 78.3948C126.183 57.4624 131.132 52.316 131.132 51.2768C131.132 50.3365 130.34 49.2479 128.311 47.3674C126.727 45.8829 123.312 42.6663 120.739 40.192C115.542 35.1445 114.355 34.3527 112.919 34.8971C112.375 35.095 101.883 45.1901 89.6098 57.413L67.3394 79.5329L64.9639 78.0484C62.341 76.3659 58.5302 75.0793 56.2537 75.0793C55.1649 75.0793 54.868 74.8813 55.1154 74.2875C55.2639 73.8421 55.4124 72.8524 55.4124 72.0112C55.4124 70.5266 55.8083 70.0317 60.3614 65.9244C74.6144 53.1077 89.7583 39.1033 91.3419 37.3219C95.4496 32.6208 97.2807 27.0289 96.8353 19.9525C96.5384 14.1627 95.1527 10.3028 93.4205 10.2533C93.272 10.2533 90.7976 12.8761 87.9766 16.0926C76.8414 28.8104 62.7369 44.4478 62.5389 44.2993C62.4399 44.2003 63.2318 41.2312 64.271 37.6683C71.4966 13.7173 74.7629 2.13774 74.6144 1.19752C74.4165 -0.138588 72.7338 -0.386017 70.1108 0.603691ZM71.546 6.09657C70.9027 8.22445 68.2797 16.8844 65.8052 25.3464C63.3307 33.7589 60.2129 44.1509 58.8767 48.3571C56.3032 56.5717 54.3236 64.9842 53.4328 71.3678C53.1359 73.5452 52.7894 75.7226 52.641 76.1679C52.3935 76.9597 52.7894 77.0587 55.7588 77.0587C64.8154 77.1082 71.744 84.9763 71.744 95.1703C71.744 102.989 65.5578 111.896 58.3818 114.42C49.1272 117.686 39.5262 110.808 38.7343 100.317C38.4374 96.5559 38.5859 95.7642 44.1782 68.6461C46.5042 57.3635 49.4241 42.6663 50.6614 35.9858C51.9481 29.3052 53.2843 22.4268 53.7297 20.6948C55.7588 12.1833 61.0542 6.24503 69.3685 3.12745C71.1006 2.48414 72.5358 1.98929 72.6348 2.08826C72.6843 2.13774 72.2389 3.9687 71.546 6.09657ZM94.5093 16.1916C94.9052 18.0226 95.0537 20.8927 94.9052 23.6144C94.5093 30.196 93.0246 32.8682 86.2445 39.5487C83.2751 42.4189 79.6624 45.8334 78.1777 47.1695C72.5358 52.217 63.4297 60.58 60.0149 63.8955C58.0353 65.8255 56.4022 67.0626 56.4022 66.6667C56.4517 65.3306 58.3818 57.1655 59.619 52.9593C60.8068 49.1489 61.1532 48.6045 64.9639 44.5467C69.5665 39.6972 90.1047 16.7854 92.0348 14.4101C92.7277 13.5689 93.4205 12.9256 93.569 13.0245C93.7175 13.1235 94.1629 14.5586 94.5093 16.1916ZM121.729 43.9034L129.4 51.2768L124.945 55.7304L120.491 60.2336L117.72 57.4624C115.74 55.5325 114.652 54.7407 114.058 54.9387C112.919 55.3841 113.711 56.6707 116.78 59.3429L119.254 61.5202L115.048 65.677L110.841 69.8338L108.02 67.0626C105.348 64.4894 103.912 63.8955 103.912 65.4296C103.912 65.776 105.15 67.2111 106.733 68.6461L109.505 71.1699L105.348 75.3762L101.24 79.5329L98.7159 77.0587C96.3404 74.6834 94.5093 73.8916 94.5093 75.1782C94.5093 75.5246 95.697 76.9597 97.1322 78.4443L99.7057 81.067L95.4991 84.9763L91.2925 88.8362L88.5705 86.2135C86.0465 83.8382 84.6113 83.2443 84.6113 84.6299C84.6113 84.9268 85.8486 86.4114 87.3333 87.9455L90.0552 90.6672L84.1659 96.5559C77.6333 103.088 77.1384 103.236 75.0103 99.9209C74.1195 98.5353 73.7731 97.1497 73.5751 94.1311C73.3277 89.8754 72.0904 86.065 69.9624 82.799L68.6262 80.8196L91.045 58.6501C103.368 46.4767 113.612 36.4806 113.761 36.4806C113.909 36.5301 117.522 39.8456 121.729 43.9034ZM30.717 61.5697C32.5481 62.411 34.9236 63.8955 36.0124 64.9347C37.9425 66.6667 42.0501 72.5555 42.0501 73.5452C42.0501 74.5349 32.8945 85.1248 30.519 86.9063C22.3037 93.0425 14.1874 93.8837 7.55579 89.3311C4.63589 87.3516 3.10171 85.1743 2.2109 81.7103C0.0828372 73.3967 5.97212 64.3904 15.9196 60.679C20.0272 59.1449 26.4114 59.5408 30.717 61.5697ZM42.743 67.5575C42.3966 69.2895 41.8522 69.5864 41.3573 68.3492C41.1593 67.8544 41.4068 67.1121 41.8522 66.5678C42.941 65.4296 43.1389 65.6275 42.743 67.5575Z" fill="#286000"/>
<path d="M51.1067 57.6108C50.7603 57.7098 50.4634 58.5016 50.4634 59.2933C50.4634 60.382 50.7603 60.7779 51.7006 61.0253C53.1358 61.3717 54.4226 60.5305 54.4226 59.2933C54.4226 57.6603 52.8389 56.8686 51.1067 57.6108Z" fill="#286000"/>
<path d="M52.2451 84.4815C48.4344 85.6691 45.5145 90.6671 45.5145 96.16C45.5145 100.119 46.1083 102.346 47.8405 104.672C52.1461 110.412 61.2522 107.492 63.5782 99.624C66.3991 90.2713 60.2624 82.1062 52.2451 84.4815ZM58.3818 86.7083C60.2129 87.6485 62.242 91.1125 62.6379 93.9332C62.8359 95.5167 62.6379 96.9023 61.8461 98.9807C60.4604 102.643 58.8767 104.523 56.2043 105.513C52.443 106.948 49.2757 105.216 47.7415 100.861C45.3165 93.9827 49.0777 85.966 54.7196 85.966C55.9568 85.966 57.59 86.3124 58.3818 86.7083Z" fill="#286000"/>
<path d="M18.2455 66.3697C13.445 68.2007 10.4756 71.3183 9.33737 75.673C8.59503 78.2957 9.1889 80.9679 10.921 83.1948C14.3358 87.5 22.3037 87.0052 27.3516 82.1061C32.5976 77.0586 32.5976 70.3286 27.4011 67.1615C25.2236 65.7759 20.72 65.4295 18.2455 66.3697ZM27.2032 69.4378C28.4404 70.576 29.2817 71.8131 29.4797 72.8523C30.7169 79.4339 20.819 86.6588 14.5833 83.7391C11.3665 82.1556 10.0302 78.3947 11.4159 74.7328C12.8017 71.0214 18.0971 67.6564 22.6006 67.6564C24.9266 67.6564 25.471 67.8543 27.2032 69.4378Z" fill="#286000"/>
</svg>
