<svg width="136" height="120" viewBox="0 0 136 120" fill="none" xmlns="http://www.w3.org/2000/svg">
<rect x="1.12378" y="1.28601" width="97.768" height="116.31" rx="10" fill="#91E456" fill-opacity="0.5"/>
<path d="M76.6963 109.884L80.2352 88.9298L94.3449 98.0466L76.6963 109.884Z" fill="#91E456" fill-opacity="0.4"/>
<path d="M114.281 25.4469L121.086 20.39L128.391 22.0758L132.605 25.4469L132.605 30.2231L130.513 34.4096L96.0197 96.8787L79.7875 87.9159L114.281 25.4469Z" fill="#91E456"/>
<path d="M95.8096 1.06616C94.728 0.576898 93.815 0.3148 87.9307 0.184326C82.0488 0.0539106 71.21 0.0537448 50.2871 0.079834C38.0782 0.105923 27.0693 0.171148 19.002 0.262451C14.9683 0.308103 11.6702 0.360669 9.3252 0.417725C8.15284 0.446249 7.21905 0.475855 6.55078 0.506592C6.21674 0.521958 5.9492 0.53769 5.75195 0.553467C5.55166 0.569492 5.43032 0.585406 5.38281 0.599365H5.38184C4.19909 0.933673 3.0234 1.82394 2.08984 2.97144C1.21501 4.04677 0.557525 5.34221 0.308594 6.6062L0.264648 6.85913C0.245722 7.01397 0.226571 7.53016 0.208984 8.37769C0.191362 9.22701 0.175237 10.4047 0.160156 11.8728C0.129995 14.809 0.105172 18.9079 0.0888672 23.8708C0.0562582 33.797 0.0562248 47.1802 0.108398 61.6326V61.6335C0.186663 87.6956 0.226306 100.83 0.382812 107.625C0.461088 111.023 0.568787 112.833 0.724609 113.88C0.802415 114.402 0.891098 114.732 0.993164 114.972C1.09475 115.212 1.21064 115.367 1.34668 115.542L1.34766 115.544C1.91756 116.321 3.06074 117.464 3.83789 118.034L3.83984 118.035C4.01479 118.171 4.17179 118.287 4.39844 118.388C4.62586 118.49 4.92651 118.58 5.3877 118.658C6.31184 118.814 7.86979 118.921 10.7529 118.999C16.5173 119.155 27.5644 119.195 49.4004 119.273L93.5771 119.378L95.8584 118.238V118.237C96.836 117.729 97.5814 117.282 98.1533 116.713C98.7234 116.145 99.1242 115.451 99.4053 114.443C99.6869 113.433 99.8481 112.109 99.9385 110.281C100.029 108.453 100.049 106.126 100.049 103.113C100.049 98.835 100.088 96.1716 100.212 94.408C100.336 92.6444 100.546 91.7729 100.891 91.0828C101.361 90.1413 104.18 85.1818 107.101 80.0183C110.022 74.853 117.328 61.9137 123.328 51.322L134.226 32.0271L134.714 29.4929C134.713 28.1197 134.54 27.085 134.193 26.1814C133.846 25.2759 133.323 24.4976 132.621 23.6394V23.6384C130.469 20.9418 127.161 19.449 123.936 19.2478C120.71 19.0467 117.579 20.1383 115.77 22.5935H115.769C115.561 22.8796 114.684 24.3455 113.448 26.4509C112.212 28.5565 110.622 31.2976 108.991 34.1248C105.73 39.7796 102.312 45.7788 101.27 47.7341H101.269L100.174 49.8201L100.049 49.7898V28.1365C100.049 17.988 100.022 12.5374 99.8789 9.36304C99.7535 6.58666 99.5389 5.5576 99.1758 4.6521L99.0107 4.26733C98.6212 3.4103 98.2475 2.80486 97.7598 2.31714C97.2721 1.82944 96.6665 1.45573 95.8096 1.06616ZM90.8779 117.071C85.1158 117.463 73.4765 117.397 49.2432 117.319L5.67676 117.163H5.64844L5.62891 117.142L4.11621 115.577L2.60254 114.012L2.58398 113.993V113.966L2.375 60.2244C2.29674 34.5544 2.27064 21.0924 2.375 13.8718C2.42717 10.2621 2.51213 8.20983 2.63965 6.97144C2.76723 5.73242 2.93852 5.29988 3.16797 4.9353V4.93433L3.16895 4.93335C3.66159 4.19439 3.956 3.62453 4.84766 3.20581C5.73211 2.79062 7.20341 2.52343 10.0488 2.34741C15.7451 1.99506 26.9924 2.00826 50.1826 1.98218C68.3393 1.98218 79.0755 2.00802 85.4678 2.1189C88.6637 2.17434 90.7758 2.25088 92.1865 2.3562C93.5929 2.4612 94.3107 2.59593 94.7139 2.77026L94.7148 2.76929C95.5348 3.1077 96.171 3.38766 96.6504 4.02417C97.1286 4.65927 97.445 5.64147 97.6572 7.3689C98.0818 10.8242 98.0947 17.3128 98.0947 30.1189C98.0947 40.6056 98.082 46.3598 97.958 49.6941C97.8496 52.61 97.656 53.6846 97.3066 54.4597L97.1475 54.7781C96.6229 55.7745 92.5538 63.0782 88.0684 70.9539H88.0674C83.632 78.8332 79.6171 86.0311 79.1484 86.9685L79.1465 86.9705L79.0664 87.1501C78.9805 87.373 78.8785 87.7246 78.7637 88.1853C78.6114 88.7961 78.4392 89.5907 78.2559 90.5134C77.8892 92.3588 77.4785 94.7138 77.0938 97.1296C76.3239 101.964 75.6592 107.032 75.6592 108.748C75.6592 109.626 75.8534 110.329 76.2012 110.809C76.5472 111.287 77.0488 111.552 77.6797 111.552C77.6922 111.552 77.7219 111.545 77.7744 111.524C77.8244 111.505 77.8885 111.475 77.9658 111.435C78.1202 111.356 78.3238 111.238 78.5713 111.087C79.0662 110.784 79.7319 110.349 80.5166 109.817C82.0859 108.754 84.1301 107.308 86.2363 105.779C90.1873 102.911 94.3519 99.7529 96.0146 98.2761L96.3125 98.0037L97.9814 96.3865L98.0947 96.2771V104.313C98.0947 107.183 98.0431 109.272 97.9189 110.814C97.7949 112.355 97.5979 113.355 97.3066 114.044H97.3076C96.9468 114.907 96.7851 115.583 95.9805 116.077C95.1827 116.566 93.7556 116.876 90.8779 117.071ZM126.742 40.2263C126.62 40.209 126.462 40.1675 126.272 40.1042C125.893 39.9775 125.377 39.7604 124.747 39.4666C123.486 38.8786 121.762 37.9783 119.753 36.8562V36.8552C117.926 35.8115 116.23 34.8203 114.971 34.0701C114.341 33.6951 113.821 33.3801 113.448 33.1492C113.262 33.0337 113.111 32.9388 113.003 32.8679C112.949 32.8325 112.904 32.8026 112.871 32.7791C112.84 32.7568 112.813 32.7368 112.799 32.7224C112.743 32.6664 112.727 32.5795 112.729 32.488C112.732 32.3933 112.754 32.2763 112.791 32.1423C112.865 31.8737 113.005 31.5231 113.192 31.1169C113.568 30.3036 114.141 29.2575 114.791 28.1804C115.441 27.103 116.168 25.9921 116.85 25.0496C117.446 24.2259 118.01 23.527 118.461 23.0906L118.646 22.9207C119.378 22.2673 119.946 21.8567 120.59 21.6111C121.234 21.3654 121.949 21.2869 122.969 21.2869C124.335 21.287 126.379 21.7591 127.586 22.2839L127.588 22.2849C130.161 23.4925 131.847 25.4908 132.321 28.0193C132.48 28.8638 132.479 29.5277 132.162 30.5046C131.847 31.4762 131.218 32.7597 130.123 34.8455V34.8464C129.418 36.1773 128.714 37.443 128.152 38.4089C127.872 38.8919 127.627 39.301 127.436 39.6052C127.34 39.7571 127.257 39.8834 127.19 39.9802C127.124 40.0757 127.071 40.1469 127.033 40.1843L127.028 40.1882C126.994 40.2165 126.95 40.2287 126.904 40.2332C126.858 40.2377 126.803 40.235 126.742 40.2263ZM95.3154 96.032C95.2995 96.032 95.2822 96.0279 95.2686 96.0242C95.2537 96.02 95.2367 96.0137 95.2178 96.0066C95.1796 95.9923 95.1307 95.9717 95.0723 95.9451C94.9551 95.8917 94.7956 95.8131 94.5996 95.7126C94.2075 95.5117 93.6659 95.2208 93.0137 94.8621C91.7087 94.1443 89.9598 93.1533 88.0811 92.0574C85.3949 90.4926 83.696 89.4473 82.7012 88.7078C82.2043 88.3384 81.8778 88.0411 81.6924 87.7908C81.5296 87.5709 81.469 87.3775 81.5078 87.199L81.5303 87.1238C81.5615 87.0404 81.6827 86.8022 81.8779 86.4333C82.0745 86.0621 82.3489 85.553 82.6924 84.9246C83.3796 83.6673 84.3412 81.9301 85.498 79.8533C87.8118 75.6994 90.907 70.1864 94.1484 64.4373C100.631 52.9393 107.701 40.4952 110.284 36.0857L111.275 34.4158L111.31 34.3582L111.367 34.3923L113.976 35.9587C115.384 36.7932 118.514 38.566 120.914 39.9226H120.915C122.09 40.6015 123.161 41.2806 123.939 41.8298C124.328 42.1043 124.645 42.348 124.865 42.5427C124.975 42.6399 125.063 42.7259 125.124 42.7996C125.154 42.8363 125.179 42.8714 125.196 42.9041C125.213 42.9358 125.227 42.9712 125.227 43.0066C125.227 43.0215 125.223 43.0368 125.22 43.0476C125.216 43.0601 125.21 43.0746 125.204 43.0906C125.192 43.1226 125.174 43.1642 125.151 43.2146C125.105 43.316 125.037 43.4567 124.947 43.6335C124.768 43.9878 124.505 44.4915 124.166 45.1267C123.488 46.3972 122.509 48.1975 121.299 50.3953C118.879 54.7913 115.539 60.7785 111.86 67.3005C106.343 77.0832 101.236 86.1624 98.6973 90.6628L97.0947 93.4939C96.7289 94.1731 96.3496 94.801 96.0352 95.2595C95.8781 95.4886 95.7358 95.6766 95.6191 95.8083C95.5609 95.8741 95.508 95.9281 95.4609 95.9656C95.4374 95.9843 95.4134 96 95.3906 96.0115C95.3685 96.0226 95.3427 96.0319 95.3154 96.032ZM77.6611 108.98C77.6478 108.974 77.6343 108.963 77.625 108.948C77.6161 108.933 77.6133 108.918 77.6133 108.905C77.6133 108.808 77.65 108.473 77.7148 107.959C77.7801 107.441 77.8748 106.737 77.9922 105.895C78.227 104.212 78.5527 101.981 78.918 99.6072C79.2831 97.2335 79.609 95.0424 79.8438 93.4187C79.9611 92.6069 80.0559 91.9367 80.1211 91.4568C80.1537 91.2168 80.1792 91.0242 80.1963 90.8855C80.2136 90.7448 80.2216 90.6646 80.2217 90.6433C80.2217 90.5512 80.2289 90.4619 80.2607 90.3923C80.2773 90.3563 80.3014 90.3242 80.335 90.2996C80.3685 90.275 80.4082 90.2598 80.4531 90.2537C80.5405 90.2418 80.6531 90.2619 80.7959 90.3083C80.9404 90.3554 81.1235 90.4323 81.3545 90.5437C82.2772 90.9887 84.0019 91.9955 87.209 93.8728H87.21C88.9326 94.8907 90.4474 95.8565 91.5059 96.6013C92.0346 96.9734 92.4507 97.2917 92.7227 97.5339C92.8581 97.6546 92.9611 97.7589 93.0234 97.8435C93.0542 97.8853 93.0781 97.9268 93.0898 97.9656C93.1017 98.0048 93.1034 98.0533 93.0713 98.0935L93.0195 98.0525L93.0723 98.0945L93.0635 98.1023L92.4336 98.6257C90.723 100.007 87.4031 102.447 84.3506 104.609C82.6059 105.845 80.9474 106.992 79.7246 107.801C79.1134 108.205 78.6097 108.525 78.2588 108.729C78.0839 108.831 77.9443 108.906 77.8477 108.948C77.8008 108.968 77.7582 108.984 77.7246 108.988C77.7091 108.99 77.6847 108.991 77.6611 108.98Z" fill="#286000" stroke="#286000" stroke-width="0.133333"/>
<line x1="18.3566" y1="58.222" x2="61.4311" y2="58.222" stroke="#286000" stroke-width="3" stroke-linecap="round"/>
<line x1="18.3566" y1="73.9548" x2="47.384" y2="73.9548" stroke="#286000" stroke-width="3" stroke-linecap="round"/>
<path d="M29.218 31.6278C29.218 31.6278 28.3752 33.3135 26.4086 34.1563C24.442 34.9992 21.3517 34.4373 19.666 33.0326C17.9803 31.6278 17.4185 27.6947 17.4185 24.8853C17.4185 22.0758 18.2613 18.1426 19.9469 16.7379C21.6326 15.3332 25.5658 15.3332 26.9705 16.176C28.3752 17.0189 29.218 18.7045 29.218 18.7045" stroke="#286000" stroke-width="4" stroke-linecap="round"/>
</svg>
