<svg width="132" height="127" viewBox="0 0 132 127" fill="none" xmlns="http://www.w3.org/2000/svg">
<path d="M15.0921 84.9787L24.2788 81.3695L35.7621 82.3538L42.6521 88.5878V97.7748L37.4026 107.618L29.8564 115.164L14.4359 121.07L3.28064 121.727L4.26493 118.446L6.5616 110.243L7.54589 101.056L9.18637 92.5251L15.0921 84.9787Z" fill="#91E456"/>
<path d="M122.051 1.96781H127.629L129.598 4.59266V9.18615L111.552 29.5287L86.2889 56.4334L58.4008 78.4166L48.2298 66.2766L68.8998 43.6373L102.694 15.0921L122.051 1.96781Z" fill="#91E456"/>
<path d="M35.7621 80.3856L46.9174 66.9333L58.4008 79.0732L43.6364 89.9007L35.7621 80.3856Z" fill="#91E456" fill-opacity="0.5"/>
<path d="M52.495 125.008L29.8564 116.805L15.092 106.962L3.93678 85.9631L1.31201 74.1513L2.2963 55.7773L5.24916 44.2936L14.4358 31.1694L28.2159 18.3732L41.6678 11.483L57.0883 9.84245L76.1179 11.483L93.8351 19.6856L110.896 35.4347L116.802 50.8557L119.427 64.6362L116.802 78.0885L107.287 83.6664H93.1789L83.6641 84.6507L76.7741 92.5252V99.4155L81.0393 113.524L72.8369 123.695L52.495 125.008Z" fill="#91E456" fill-opacity="0.5"/>
<ellipse cx="25.2631" cy="55.1213" rx="8.85859" ry="8.53076" fill="#91E456" fill-opacity="0.5"/>
<ellipse cx="50.1984" cy="34.4505" rx="9.51478" ry="9.51508" fill="#91E456" fill-opacity="0.5"/>
<path d="M25.5911 45.8719C30.6991 45.8719 34.8399 50.0127 34.8401 55.1209C34.8401 60.2292 30.6992 64.3709 25.5911 64.3709C20.4831 64.3709 16.3421 60.2292 16.3421 55.1209C16.3423 50.0127 20.4832 45.8719 25.5911 45.8719Z" stroke="#286000" stroke-width="2.5"/>
<path d="M50.5264 24.8728C55.6343 24.8728 59.7752 29.0137 59.7754 34.1219C59.7754 39.2302 55.6345 43.3719 50.5264 43.3719C45.4183 43.3718 41.2773 39.2302 41.2773 34.1219C41.2775 29.0137 45.4184 24.8729 50.5264 24.8728Z" stroke="#286000" stroke-width="2.5"/>
<path d="M32.7946 119.983C43.7757 125.352 57.0306 127.733 67.069 126.183C79.3256 124.246 85.1485 115.057 80.2125 105.37C77.8833 100.775 76.9961 96.9558 77.6061 94.5756C78.4934 91.3097 81.3775 87.8776 84.816 86.1615C88.1436 84.4456 86.9237 84.5005 100.677 85.5522C108.386 86.1611 114.321 83.6153 117.926 78.1352C120.145 74.7033 120.866 72.046 120.866 66.7875C120.866 58.7611 117.926 48.1328 113.046 38.6117L110.217 33.1313L111.493 31.5815C112.214 30.6953 116.318 26.1014 120.533 21.3412C130.183 10.6026 131.569 8.60946 131.181 6.11857C130.405 1.13668 125.191 -1.465 120.533 0.859779C119.59 1.30262 115.874 3.95989 112.214 6.67228C108.609 9.44002 103.284 13.4809 100.456 15.5844L95.3531 19.4594L93.2457 18.0746C86.8678 13.8678 77.8832 10.5466 69.8971 9.38419C62.4654 8.27715 50.2084 8.94129 44.0524 10.768C26.8043 15.8607 12.7172 27.5412 5.2301 42.8744C1.79176 49.9042 0.40585 56.104 0.12854 66.0121C-0.14876 73.651 -0.0382626 75.3673 1.07092 80.017C1.73645 83.0062 3.23381 87.2135 4.5094 89.7045C6.11767 92.9703 6.61698 94.5756 6.39514 95.6274C6.22874 96.4582 5.84039 100.942 5.56311 105.591C5.06399 113.673 4.95291 114.282 3.17834 117.713C1.40375 121.2 1.40392 121.312 2.40198 122.086C3.84395 123.083 7.50446 123.083 13.6051 122.032C19.1511 121.035 23.81 119.818 26.4166 118.544C28.0803 117.769 28.3024 117.824 32.7946 119.983ZM58.2731 77.1801L49.4147 67.9926L48.1178 66.6479L49.3707 65.2631L61.8385 51.4818L61.9039 51.4096L61.9762 51.3442C66.2921 47.4205 70.4369 43.5212 73.8502 40.2963C77.2415 37.0923 79.9561 34.5105 81.358 33.2768L81.3912 33.2475L81.4254 33.2201L96.5182 21.0795L96.5358 21.0658L110.297 10.2514C110.314 10.2379 110.336 10.2197 110.364 10.1967C110.427 10.1444 110.518 10.0688 110.635 9.97208C110.87 9.77824 111.207 9.50063 111.62 9.16544C112.445 8.4959 113.579 7.59109 114.809 6.65275C116.036 5.71706 117.377 4.73344 118.614 3.91447C119.795 3.13218 121.058 2.37734 122.075 2.03849C124.174 1.33876 126.377 1.77102 127.877 3.00919C129.457 4.31465 130.207 6.5322 129.089 8.76798C128.914 9.11839 128.627 9.516 128.368 9.85783C128.078 10.2399 127.708 10.6996 127.277 11.2172C126.414 12.2548 125.265 13.578 123.937 15.0756C121.279 18.0737 117.865 21.8172 114.5 25.4701C111.133 29.1248 107.807 32.6963 105.324 35.3539C104.082 36.6827 103.051 37.7836 102.33 38.5522C101.969 38.9364 101.686 39.2375 101.493 39.4428C101.397 39.5452 101.323 39.6241 101.273 39.6772C101.248 39.7036 101.229 39.7242 101.216 39.7377L101.197 39.7572L100.616 39.2113H100.615L101.197 39.7582L101.188 39.768L101.178 39.7768L82.4772 59.1352L82.4078 59.2074L82.3307 59.2719L61.0045 77.3178L59.5739 78.5287L58.2731 77.1801ZM7.11584 89.8149C6.56118 88.9843 5.28594 85.8845 4.28772 83.0063C2.51299 77.8583 2.45764 77.5261 2.45764 68.3373C2.45764 57.7094 3.45577 52.4506 6.89417 44.9779C13.383 30.8071 26.9712 18.7395 41.8346 13.8129C51.3738 10.6577 64.629 10.3255 75.111 12.9272C78.161 13.6467 81.9318 14.8645 83.4293 15.5287C86.867 17.0229 93.1322 20.6195 93.1354 21.0639C93.1354 21.2853 91.3052 22.8912 89.1422 24.6625C83.3189 29.3123 74.001 37.2831 69.8414 41.2133C67.8449 43.0953 65.2944 45.476 64.1852 46.5277C61.1349 49.3508 53.3701 57.8196 43.11 69.4994L33.8483 80.017H28.9674C20.1494 79.9617 13.1059 83.3383 9.33459 89.4272L8.11487 91.4203L7.11584 89.8149ZM72.1715 122.198C65.6272 125.021 54.7565 124.965 44.6627 122.032C39.7831 120.593 30.9672 116.885 31.0748 116.275C31.0748 116.109 32.1285 115.167 33.4039 114.282C36.4543 112.067 41.2793 105.646 42.7213 101.827C43.3868 100.166 44.053 97.0661 44.2194 95.018L44.4967 91.2543L52.0387 85.8852C69.0096 73.9285 85.759 59.2036 100.29 43.4828C105.89 37.4503 108.442 35.0697 108.775 35.5668C109.052 35.8989 110.217 38.1137 111.381 40.3832C115.541 48.5204 118.647 59.7575 118.647 66.7875C118.647 73.8727 115.375 79.4082 109.663 81.9545C107.001 83.1169 106.113 83.228 100.623 83.0619C86.3699 82.5638 85.87 82.6189 83.0973 84.224C77.884 87.2686 74.5003 92.749 74.944 97.3988C75.1105 98.8382 76.1093 101.882 77.2184 104.096C78.2721 106.366 79.3256 109.079 79.5475 110.186C80.3791 114.78 77.1627 120.039 72.1715 122.198ZM43.8307 88.5414C43.6639 88.5405 42.9429 87.5445 42.2223 86.2719C41.5012 85.0541 39.9484 83.3941 38.7838 82.5639C37.5637 81.7336 36.6766 80.9025 36.7321 80.6811C36.7901 80.512 39.2296 77.5796 42.1119 74.2602L47.3805 68.1156L52.483 73.4848C55.3115 76.4186 57.4187 78.9655 57.1969 79.1869C56.1982 80.0729 44.108 88.5414 43.8307 88.5414ZM13.1061 119.54C5.40103 120.536 4.95321 120.592 4.95276 120.316C4.95276 120.15 5.45227 119.042 6.1178 117.769C7.06059 115.942 7.39364 113.839 7.78186 107.141C8.39192 97.2325 9.33501 93.5239 12.108 89.8705C14.3819 86.8814 18.9293 83.8369 22.3678 83.0619C26.0281 82.287 31.7402 82.3973 34.5133 83.3383C37.6745 84.39 40.7809 87.7112 41.3356 90.4789C42.5557 97.1215 39.4491 105.093 33.4039 110.684C28.1353 115.666 21.813 118.378 13.1061 119.54Z" fill="#286000"/>
</svg>
