<svg width="131" height="140" viewBox="0 0 131 140" fill="none" xmlns="http://www.w3.org/2000/svg">
<path d="M83.7972 113.156H46.8719V107.276L43.6042 100.415L39.3561 94.8617L35.7616 90.6148L30.5333 84.0811L26.612 76.2406L24.6514 67.0934L25.6317 55.986L31.1868 42.9186L39.6829 33.7713L49.8129 27.891L63.5373 24.9508L79.876 27.891L91.6398 33.7713L99.8091 42.9186L106.018 55.986V71.0136L97.8485 87.6746L86.0846 103.356L83.7972 113.156Z" fill="#91E456" fill-opacity="0.5" stroke="black"/>
<path d="M83.7972 113.483H48.1789L47.1986 117.73L48.1789 123.284L49.8128 126.224L53.7341 127.53L55.0412 131.124L58.3089 136.024L64.5176 137.658H70.3995L74.6475 134.718L76.6082 130.144L77.9152 127.53L82.4901 125.57L83.7972 120.343V113.483Z" fill="#91E456" stroke="black"/>
<path d="M54.4129 25.5531C36.4369 30.2211 23.8767 46.0119 23.8767 64.0502C23.8767 73.9626 27.3336 82.4919 34.7084 90.9636C44.0421 101.683 45.4249 104.795 46.0011 115.572C46.1739 119.606 46.5772 123.525 46.8653 124.274C47.5567 126.118 50.207 128.135 51.8202 128.135C52.9149 128.135 53.203 128.539 53.5487 130.44C54.4705 136.031 58.8493 139.085 65.7632 139.085C73.0804 139.085 76.5949 136.722 77.3439 131.19C77.7472 128.654 77.8624 128.539 80.3399 127.789C84.4882 126.579 85.122 124.966 85.5253 114.88C85.8134 106.87 85.9286 106.293 87.6571 102.778C88.6942 100.703 91.6326 96.6114 94.1676 93.6146C99.8716 87.0447 101.83 84.2208 104.02 79.4951C108.629 69.698 108.341 56.6735 103.386 46.8763C97.9703 36.0994 88.5789 28.5499 77.0558 25.6107C70.7757 23.997 60.5778 23.997 54.4129 25.5531ZM76.3068 27.6278C93.5339 31.489 106.094 48.3747 104.942 66.1249C104.308 75.5186 101.658 81.1664 92.9577 91.5399C86.62 99.1471 83.8545 104.103 83.3935 108.887L83.0478 111.999H65.5903H48.0752V110.385C48.0752 105.486 44.6183 99.1471 37.5316 90.9059C29.6383 81.7427 26.7575 75.461 26.2966 66.1249C25.778 54.5412 28.8893 46.4153 37.0707 38.1741C47.4991 27.743 60.8083 24.1699 76.3068 27.6278ZM83.2207 117.762C83.2207 122.487 82.126 124.908 79.7061 125.772C78.4386 126.233 73.4837 126.406 65.3599 126.406C52.3388 126.349 49.6308 125.888 48.9971 123.582C48.7666 122.833 48.4785 116.09 48.5938 114.707C48.6514 114.477 56.4295 114.304 65.936 114.304H83.2207V117.762ZM75.5002 130.268C75.0393 132.861 73.5413 135.051 71.64 136.031C70.891 136.434 68.1254 136.78 65.5327 136.78C61.0387 136.78 60.693 136.664 58.7917 134.993C57.0632 133.495 55.5652 130.498 55.5652 128.539C55.5652 128.308 60.1169 128.135 65.7056 128.135H75.8459L75.5002 130.268Z" fill="#286000"/>
<path d="M67.5867 80.6566C67.9081 80.6508 68.2446 80.6423 68.5906 80.6293C69.6923 80.5877 70.9183 80.5034 72.0769 80.3402C73.2043 80.1814 74.4053 79.9299 75.3826 79.4955C76.8935 78.8237 78.4089 78.0303 79.7009 77.0609C80.9893 76.0942 82.1587 74.8755 82.825 73.3207C83.9206 70.7632 84.4763 66.7253 82.2937 63.6683C81.3746 62.3812 80.4008 61.4384 79.1609 60.8802C77.9535 60.3368 76.713 60.2631 75.533 60.2631C72.6166 60.2631 70.5313 61.5493 68.9851 63.0961C67.2874 64.7945 66.2037 67.5163 65.8484 70.3597C65.771 70.9791 65.712 71.6905 65.6667 72.4174C65.6215 71.6906 65.5644 70.9791 65.4871 70.3597C65.1318 67.5163 64.0479 64.7946 62.3503 63.0961C60.8042 61.5494 58.7187 60.2631 55.8025 60.2631C54.6224 60.2631 53.3819 60.3368 52.1746 60.8802C50.9346 61.4384 49.9609 62.3811 49.0417 63.6683C46.859 66.7253 47.4148 70.7632 48.5105 73.3207C49.1767 74.8754 50.3461 76.0942 51.6345 77.0609C52.9265 78.0302 54.4421 78.8238 55.9529 79.4955C56.9301 79.9298 58.1313 80.1814 59.2585 80.3402C60.4171 80.5034 61.6433 80.5877 62.7449 80.6293C63.0331 80.6402 63.3148 80.6479 63.5867 80.6537V112.328H67.5867V80.6566ZM61.8113 76.5746C61.132 76.5304 60.452 76.4688 59.8162 76.3793C58.8086 76.2373 58.0443 76.0475 57.5779 75.8402C56.2016 75.2283 54.9886 74.5771 54.0349 73.8617C53.0782 73.1439 52.4835 72.4366 52.1873 71.7455C51.358 69.81 51.2723 67.4286 52.2976 65.9926C52.9824 65.0336 53.4521 64.6916 53.8162 64.5277C54.2127 64.3492 54.7371 64.2631 55.8025 64.2631C57.3774 64.2631 58.501 64.9027 59.5212 65.9232C60.3899 66.7923 61.232 68.5649 61.5183 70.8558C61.6657 72.036 61.744 73.7177 61.7839 75.1556C61.7987 75.6861 61.8055 76.1734 61.8113 76.5746ZM69.5515 75.1556C69.5914 73.7177 69.6697 72.036 69.8171 70.8558C70.1034 68.5647 70.9455 66.7923 71.8142 65.9232C72.8345 64.9026 73.9579 64.2631 75.533 64.2631C76.5984 64.2631 77.1227 64.3492 77.5193 64.5277C77.8833 64.6917 78.3532 65.0337 79.0378 65.9926C80.0631 67.4287 79.9774 69.8101 79.1482 71.7455C78.8519 72.4367 78.2573 73.1438 77.3005 73.8617C76.3468 74.5772 75.134 75.2283 73.7576 75.8402C73.2912 76.0475 72.527 76.2373 71.5193 76.3793C70.8834 76.4689 70.2035 76.5304 69.5242 76.5746C69.5299 76.1734 69.5368 75.6861 69.5515 75.1556Z" fill="#286000"/>
<path d="M66.1769 15.7881C67.5575 15.7881 68.6768 14.6687 68.6769 13.2881V2.5C68.6769 1.11929 67.5576 0 66.1769 0C64.7962 6.10352e-05 63.6769 1.11933 63.6769 2.5V13.2881C63.677 14.6687 64.7963 15.788 66.1769 15.7881ZM30.3976 25.7578C31.2461 26.8469 32.8164 27.042 33.9054 26.1934C34.9943 25.3447 35.1891 23.7738 34.3409 22.6846L27.713 14.1758C26.8646 13.0865 25.2943 12.8915 24.2052 13.7402C23.1163 14.589 22.9213 16.1598 23.7697 17.249L30.3976 25.7578ZM96.9816 26.3223C98.0705 27.1709 99.6419 26.9758 100.49 25.8867L107.118 17.377C107.966 16.2878 107.771 14.7169 106.683 13.8682C105.594 13.0194 104.022 13.2144 103.174 14.3037L96.546 22.8135C95.6981 23.9027 95.8929 25.4736 96.9816 26.3223ZM12.2667 54.9756C13.6 55.3332 14.9711 54.5422 15.3292 53.209C15.6873 51.8757 14.8968 50.5046 13.5636 50.1465L3.14954 47.3506C1.81605 46.9926 0.444236 47.7837 0.0860596 49.1172C-0.271769 50.4504 0.518552 51.8216 1.85168 52.1797L12.2667 54.9756ZM114.989 53.6719C115.347 55.0051 116.719 55.7961 118.052 55.4385L128.466 52.6406C129.799 52.2824 130.591 50.9106 130.233 49.5771C129.874 48.244 128.503 47.4535 127.17 47.8115L116.756 50.6094C115.423 50.9677 114.632 52.3386 114.989 53.6719ZM4.78918 92.7607C5.40653 93.9958 6.90879 94.4965 8.14368 93.8789L17.7872 89.0557C19.0221 88.4381 19.5227 86.9362 18.9054 85.7012C18.288 84.4662 16.7868 83.9654 15.5519 84.583L5.90735 89.4062C4.67271 90.0239 4.17202 91.5259 4.78918 92.7607ZM122.384 94.5205C123.619 95.1381 125.121 94.6374 125.738 93.4023C126.356 92.1675 125.855 90.6655 124.62 90.0479L114.976 85.2246C113.741 84.607 112.24 85.1078 111.622 86.3428C111.005 87.5777 111.506 89.0797 112.74 89.6973L122.384 94.5205Z" fill="#286000"/>
</svg>
